<svg version="1.2" xmlns="http://www.w3.org/2000/svg" viewBox="0 0 512 512" width="512" height="512">
	<title>logo_Axis-06-svg</title>
	<defs>
		<linearGradient id="g1" x1="44.9" y1="73.6" x2="251.7" y2="486.3" gradientUnits="userSpaceOnUse">
			<stop offset="0" stop-color="#58ff82"/>
			<stop offset=".2" stop-color="#00ffed"/>
			<stop offset=".4" stop-color="#00a8ff"/>
			<stop offset=".6" stop-color="#005cfc"/>
			<stop offset=".8" stop-color="#550ba9"/>
			<stop offset="1" stop-color="#9157ff"/>
		</linearGradient>
		<linearGradient id="g2" x1="341.8" y1="-75.2" x2="548.6" y2="337.5" gradientUnits="userSpaceOnUse">
			<stop offset="0" stop-color="#58ff82"/>
			<stop offset=".2" stop-color="#00ffed"/>
			<stop offset=".4" stop-color="#00a8ff"/>
			<stop offset=".6" stop-color="#005cfc"/>
			<stop offset=".8" stop-color="#550ba9"/>
			<stop offset="1" stop-color="#9157ff"/>
		</linearGradient>
		<linearGradient id="g3" x1="42.8" y1="74.6" x2="249.7" y2="487.4" gradientUnits="userSpaceOnUse">
			<stop offset="0" stop-color="#58ff82"/>
			<stop offset=".2" stop-color="#00ffed"/>
			<stop offset=".4" stop-color="#00a8ff"/>
			<stop offset=".6" stop-color="#005cfc"/>
			<stop offset=".8" stop-color="#550ba9"/>
			<stop offset="1" stop-color="#9157ff"/>
		</linearGradient>
		<linearGradient id="g4" x1="318.8" y1="-63.7" x2="525.7" y2="349" gradientUnits="userSpaceOnUse">
			<stop offset="0" stop-color="#58ff82"/>
			<stop offset=".2" stop-color="#00ffed"/>
			<stop offset=".4" stop-color="#00a8ff"/>
			<stop offset=".6" stop-color="#005cfc"/>
			<stop offset=".8" stop-color="#550ba9"/>
			<stop offset="1" stop-color="#9157ff"/>
		</linearGradient>
		<linearGradient id="g5" x1="56.5" y1="67.8" x2="263.3" y2="480.5" gradientUnits="userSpaceOnUse">
			<stop offset="0" stop-color="#58ff82"/>
			<stop offset=".2" stop-color="#00ffed"/>
			<stop offset=".4" stop-color="#00a8ff"/>
			<stop offset=".6" stop-color="#005cfc"/>
			<stop offset=".8" stop-color="#550ba9"/>
			<stop offset="1" stop-color="#9157ff"/>
		</linearGradient>
		<linearGradient id="g6" x1="50.8" y1="70.6" x2="257.7" y2="483.3" gradientUnits="userSpaceOnUse">
			<stop offset="0" stop-color="#58ff82"/>
			<stop offset=".2" stop-color="#00ffed"/>
			<stop offset=".4" stop-color="#00a8ff"/>
			<stop offset=".6" stop-color="#005cfc"/>
			<stop offset=".8" stop-color="#550ba9"/>
			<stop offset="1" stop-color="#9157ff"/>
		</linearGradient>
		<linearGradient id="g7" x1="57.9" y1="67" x2="264.7" y2="479.8" gradientUnits="userSpaceOnUse">
			<stop offset="0" stop-color="#58ff82"/>
			<stop offset=".2" stop-color="#00ffed"/>
			<stop offset=".4" stop-color="#00a8ff"/>
			<stop offset=".6" stop-color="#005cfc"/>
			<stop offset=".8" stop-color="#550ba9"/>
			<stop offset="1" stop-color="#9157ff"/>
		</linearGradient>
		<linearGradient id="g8" x1="127.3" y1="32.2" x2="334.2" y2="445" gradientUnits="userSpaceOnUse">
			<stop offset="0" stop-color="#58ff82"/>
			<stop offset=".2" stop-color="#00ffed"/>
			<stop offset=".4" stop-color="#00a8ff"/>
			<stop offset=".6" stop-color="#005cfc"/>
			<stop offset=".8" stop-color="#550ba9"/>
			<stop offset="1" stop-color="#9157ff"/>
		</linearGradient>
		<linearGradient id="g9" x1="65.5" y1="63.2" x2="272.4" y2="476" gradientUnits="userSpaceOnUse">
			<stop offset="0" stop-color="#58ff82"/>
			<stop offset=".2" stop-color="#00ffed"/>
			<stop offset=".4" stop-color="#00a8ff"/>
			<stop offset=".6" stop-color="#005cfc"/>
			<stop offset=".8" stop-color="#550ba9"/>
			<stop offset="1" stop-color="#9157ff"/>
		</linearGradient>
		<linearGradient id="g10" x1="114.7" y1="38.5" x2="321.6" y2="451.3" gradientUnits="userSpaceOnUse">
			<stop offset="0" stop-color="#58ff82"/>
			<stop offset=".2" stop-color="#00ffed"/>
			<stop offset=".4" stop-color="#00a8ff"/>
			<stop offset=".6" stop-color="#005cfc"/>
			<stop offset=".8" stop-color="#550ba9"/>
			<stop offset="1" stop-color="#9157ff"/>
		</linearGradient>
		<linearGradient id="g11" x1="75.4" y1="58.2" x2="282.3" y2="471" gradientUnits="userSpaceOnUse">
			<stop offset="0" stop-color="#58ff82"/>
			<stop offset=".2" stop-color="#00ffed"/>
			<stop offset=".4" stop-color="#00a8ff"/>
			<stop offset=".6" stop-color="#005cfc"/>
			<stop offset=".8" stop-color="#550ba9"/>
			<stop offset="1" stop-color="#9157ff"/>
		</linearGradient>
		<linearGradient id="g12" x1="102.9" y1="44.5" x2="309.8" y2="457.2" gradientUnits="userSpaceOnUse">
			<stop offset="0" stop-color="#58ff82"/>
			<stop offset=".2" stop-color="#00ffed"/>
			<stop offset=".4" stop-color="#00a8ff"/>
			<stop offset=".6" stop-color="#005cfc"/>
			<stop offset=".8" stop-color="#550ba9"/>
			<stop offset="1" stop-color="#9157ff"/>
		</linearGradient>
		<linearGradient id="g13" x1="96.2" y1="47.8" x2="303.1" y2="460.6" gradientUnits="userSpaceOnUse">
			<stop offset="0" stop-color="#58ff82"/>
			<stop offset=".2" stop-color="#00ffed"/>
			<stop offset=".4" stop-color="#00a8ff"/>
			<stop offset=".6" stop-color="#005cfc"/>
			<stop offset=".8" stop-color="#550ba9"/>
			<stop offset="1" stop-color="#9157ff"/>
		</linearGradient>
		<linearGradient id="g14" x1="96.2" y1="47.8" x2="303.1" y2="460.6" gradientUnits="userSpaceOnUse">
			<stop offset="0" stop-color="#58ff82"/>
			<stop offset=".2" stop-color="#00ffed"/>
			<stop offset=".4" stop-color="#00a8ff"/>
			<stop offset=".6" stop-color="#005cfc"/>
			<stop offset=".8" stop-color="#550ba9"/>
			<stop offset="1" stop-color="#9157ff"/>
		</linearGradient>
	</defs>
	<style>
		.s0 { opacity: .1;fill: url(#g1) } 
		.s1 { opacity: .1;fill: url(#g2) } 
		.s2 { opacity: .1;fill: url(#g3) } 
		.s3 { opacity: .1;fill: url(#g4) } 
		.s4 { opacity: .1;fill: url(#g5) } 
		.s5 { opacity: .1;fill: url(#g6) } 
		.s6 { opacity: .2;fill: url(#g7) } 
		.s7 { opacity: .2;fill: url(#g8) } 
		.s8 { opacity: .4;fill: url(#g9) } 
		.s9 { opacity: .4;fill: url(#g10) } 
		.s10 { opacity: .6;fill: url(#g11) } 
		.s11 { opacity: .6;fill: url(#g12) } 
		.s12 { opacity: .8;fill: url(#g13) } 
		.s13 { fill: url(#g14) } 
		.s14 { fill: #1b2342 } 
	</style>
	<path id="Layer" class="s0" d="m309.1 494.9q-6.2 1.3-12.5 2.4c-14.4-4.3-28.1-10.7-40.6-19-12.5 8.3-26.2 14.7-40.6 19q-6.3-1.1-12.5-2.4c18.4-4 35.9-11.6 51.6-22.2 0.9-0.6 2.1-0.6 3 0 15.7 10.6 33.2 18.2 51.6 22.2z"/>
	<path id="Layer" class="s1" d="m388.2 50.1q6.4 4.1 12.5 8.6l91.7 134q2 7.3 3.5 14.8z"/>
	<path id="Layer" class="s2" d="m16.1 207.5q1.5-7.5 3.5-14.8l91.6-134q6.2-4.5 12.6-8.6z"/>
	<path id="Layer" class="s3" d="m337.2 25.1q6.7 2.4 13.3 5.1c4.8 5.1 9.2 10.5 13.1 16.2l136.9 200.2q0.2 4.7 0.2 9.4 0 0.3 0 0.5l-141.6-207c-6.2-9-13.6-17.2-21.9-24.4z"/>
	<path id="Layer" class="s4" d="m11.3 256q0-4.7 0.2-9.4l136.9-200.2c3.9-5.7 8.3-11.1 13.1-16.2q6.6-2.7 13.3-5.1c-8.3 7.2-15.7 15.4-21.9 24.4l-141.6 207q0-0.2 0-0.5z"/>
	<path id="Layer" class="s5" d="m354.7 480q-4.5 1.9-9 3.7l-30.5-6.2c-21.9-4.4-42.3-14.3-59.2-28.9-16.9 14.6-37.3 24.5-59.2 28.9l-30.5 6.2q-4.5-1.8-9-3.7l38.4-7.8c21.8-4.4 41.9-14.5 58.5-29.2 1-1 2.6-1 3.6 0 16.6 14.7 36.7 24.8 58.5 29.2z"/>
	<path id="Layer" class="s6" d="m387.5 462.4q-3.4 2.1-6.9 4.2l-60.7-12.3c-25.5-5.1-48.2-19.4-63.9-40.1-15.7 20.7-38.4 35-63.9 40.1l-60.7 12.3q-3.5-2-6.9-4.2l66.5-13.5c25.4-5.1 47.9-19.7 62.8-41q0.2-0.4 0.6-0.6c1.3-0.9 3-0.6 3.8 0.6 14.9 21.3 37.4 36 62.8 41z"/>
	<path id="Layer" class="s7" d="m14.3 294.2q-0.6-4-1.1-8.1l154.7-226.3c7.5-10.9 16.9-20.3 27.9-27.8 48.6-33.3 115-20.8 148.2 27.8l154.8 226.4q-0.5 4-1.1 8l-158.2-231.3c-7.1-10.3-16-19.3-26.4-26.4-46.1-31.5-109.1-19.7-140.6 26.4z"/>
	<path id="Layer" class="s8" d="m413.4 443.3q-2.8 2.4-5.6 4.6l-83.2-16.8c-21.5-4.3-40.4-17-52.5-35.2l-16.1-24.1-16.1 24.1c-12.1 18.2-31 30.9-52.5 35.2l-83.2 16.8q-2.8-2.2-5.6-4.6 2.1-0.3 4.1-0.7l83.6-16.9c20.1-4 37.7-15.8 49.1-32.9l18.3-27.4q0.3-0.5 0.8-0.8c1.2-0.8 2.9-0.5 3.8 0.8l18.3 27.4c11.4 17.1 29 28.9 49.1 32.9l83.6 16.9q2 0.4 4.1 0.7z"/>
	<path id="Layer" class="s9" d="m21.5 325.9q-1.1-3.5-2-7l168-245.7c5.8-8.5 13.2-15.8 21.7-21.6 37.8-25.9 89.4-16.2 115.3 21.6l168 245.7q-0.9 3.5-2 7c-0.6-1-1.2-2-1.9-3l-168.6-246.6c-5.5-7.9-12.3-14.8-20.3-20.2-35.3-24.2-83.5-15.1-107.7 20.2l-168.6 246.6c-0.7 1-1.3 2-1.9 3z"/>
	<path id="Layer" class="s10" d="m438.9 418.6q-3.1 3.4-6.4 6.8c-6.5 0.9-13.1 0.7-19.6-0.7l-83.6-16.9c-15.4-3-28.8-12.1-37.5-25.1l-35.8-53.5-35.8 53.5c-8.7 13-22.2 22.1-37.5 25.1l-83.6 16.9q-5.9 1.2-11.9 1.2-3.9 0-7.7-0.5-3.3-3.4-6.3-6.8c4.5 1.2 9.3 1.9 14 1.9q5.5 0 10.8-1.1l83.6-16.9c14-2.8 26.2-11 34.1-22.9l38-56.9q0.3-0.3 0.6-0.6c1.3-0.9 3-0.6 4 0.6l38 56.9c7.9 11.9 20.1 20.1 34.1 22.9l83.6 16.9q5.3 1.1 10.8 1.1c4.7 0 9.5-0.7 14.1-1.9z"/>
	<path id="Layer" class="s11" d="m34.1 359.2q-2-4.3-3.8-8.6c1.7-6.2 4.5-12.1 8.1-17.4l168.7-246.6c4.1-6.1 9.4-11.3 15.4-15.5 27.1-18.4 63.9-11.5 82.4 15.5l168.7 246.6c3.6 5.3 6.4 11.2 8.1 17.4q-1.8 4.3-3.8 8.6c-1.1-8.2-4.2-16.1-8.9-22.9l-168.6-246.6c-3.8-5.5-8.5-10.3-14-14-24.6-16.8-58-10.5-74.8 14l-168.6 246.6c-4.7 6.8-7.8 14.7-8.9 22.9z"/>
	<path id="Layer" fill-rule="evenodd" class="s12" d="m87.2 402.2c-7.1 0-14-2.2-19.9-6.2-16.2-11.1-20.4-33.2-9.3-49.4l168.7-246.6c2.5-3.6 5.6-6.8 9.2-9.3 16.2-11.1 38.3-6.9 49.4 9.3l168.7 246.6c4 5.9 6.2 12.8 6.2 20 0.1 19.6-15.8 35.6-35.4 35.6q-3.7 0-7.2-0.7l-83.6-16.9c-9.2-1.9-17.3-7.3-22.5-15.1l-55.5-83-55.5 83c-5.2 7.8-13.3 13.2-22.5 15.1l-83.6 16.9q-3.5 0.7-7.2 0.7zm0.1-5.5q3 0 6-0.6l83.6-16.9c7.8-1.5 14.7-6.1 19-12.7l57.8-86.4q0.3-0.4 0.6-0.6c1.3-1 3-0.7 4 0.6l57.8 86.4c4.3 6.6 11.2 11.2 19 12.7l83.6 16.9q3 0.6 6.1 0.6c6 0 11.9-1.8 16.8-5.2 13.7-9.4 17.2-28.1 7.9-41.8l-168.7-246.6c-2.1-3.1-4.8-5.8-7.8-7.9-13.7-9.3-32.4-5.8-41.8 7.9l-168.7 246.6c-6.3 9.2-7 21.1-1.8 31 5.2 9.8 15.4 16 26.6 16z"/>
	<path id="Layer" fill-rule="evenodd" class="s13" d="m89.7 378.3q-1.2 0.2-2.5 0.2c-2.3 0-4.6-0.7-6.5-2.1-5.4-3.6-6.8-11-3.1-16.4l168.6-246.6c0.9-1.2 1.9-2.3 3.1-3.1 5.4-3.7 12.8-2.3 16.5 3.1l168.6 246.6c1.8 2.6 2.5 5.9 1.8 9-1.2 6.4-7.5 10.5-13.9 9.3l-83.6-17c-3.1-0.6-5.8-2.4-7.5-5l-69.9-104.6q-0.7-1-1.8-1.7c-2.9-2-6.8-1.2-8.8 1.7l-69.9 104.6c-1.7 2.6-4.4 4.4-7.5 5zm-1.1-5.3l83.6-17c1.7-0.3 3.1-1.2 4.1-2.6l69.9-104.6c0.9-1.3 2-2.4 3.2-3.3 5.5-3.6 12.8-2.2 16.4 3.3l70 104.6c0.9 1.4 2.4 2.3 4 2.6l83.6 17c1.7 0.3 3.4 0 4.9-1 2.9-2 3.6-5.9 1.6-8.8l-168.6-246.6q-0.7-1-1.7-1.7c-2.9-2-6.8-1.2-8.8 1.7l-168.7 246.6c-1.5 2.1-1.5 4.9 0 7.1 1.4 2.1 4 3.2 6.5 2.7z"/>
	<path id="Layer" class="s14" d="m256 212.7l-88.4 132.1-68.1 13.8 156.5-228.8 156.5 228.8-68.1-13.8z"/>
</svg>