<svg version="1.2" baseProfile="tiny-ps" xmlns="http://www.w3.org/2000/svg" viewBox="0 0 128 128" width="128" height="128">
	<path fill="#1589d4" d="M63.98 128C60.13 128 56.63 121.2 54.06 110.14C52.07 109.72 50.57 107.9 50.57 105.71C50.57 104.17 51.32 102.81 52.46 101.99C51.71 97.44 51.09 92.42 50.63 87.05C28.81 97.18 11.49 101.12 8.46 95.85C5.44 90.58 17.54 77.64 37.24 63.94C32.63 60.7 28.43 57.51 24.75 54.45C24.22 54.68 23.63 54.81 23.02 54.81C20.6 54.81 18.65 52.79 18.65 50.3C18.65 49.91 18.7 49.54 18.78 49.18C10.7 41.54 6.7 35.22 8.6 31.92C11.65 26.66 28.92 30.65 50.64 40.83C52.71 16.94 57.9 0 63.98 0C70.06 0 75.26 16.99 77.33 40.94C81.9 38.82 86.27 36.97 90.35 35.42C90.34 35.26 90.33 35.1 90.33 34.94C90.33 32.44 92.28 30.42 94.7 30.42C96.29 30.42 97.69 31.3 98.45 32.62C109.65 29.18 117.54 28.75 119.49 32.15C122.51 37.42 110.41 50.36 90.71 64.05C110.34 77.83 122.4 90.82 119.35 96.07C116.3 101.34 99.04 97.35 77.32 87.16C75.24 111.06 70.05 128 63.98 128ZM72.24 103.61C72.24 103.61 73.55 96.08 74.54 85.84C71.09 84.16 67.54 82.34 63.93 80.39C60.4 82.28 56.92 84.05 53.53 85.68C53.91 91 54.44 96.32 55.2 101.2C57.49 101.34 59.31 103.31 59.31 105.71C59.31 107.48 58.32 109.01 56.89 109.76C57.15 110.76 57.41 111.72 57.7 112.64C57.7 112.64 59.52 120.47 63.16 124.69C63.16 124.69 64.06 125.59 64.96 124.39C64.96 124.39 69.21 120.77 72.24 103.61ZM69.52 12.95C69.52 12.95 67.27 4.99 64.58 3.09C64.36 2.93 64.1 2.86 63.84 2.88C63.57 2.9 63.32 3.02 63.13 3.2C61.39 4.92 56.49 12.31 53.42 42.16C56.87 43.83 60.42 45.65 64.02 47.6C67.66 45.66 71.23 43.85 74.7 42.18C73.89 33.86 72.37 23.54 69.52 12.95ZM12.09 94.91C12.09 94.91 17.34 96.79 33.74 90.88C33.74 90.88 47.06 86.04 61.12 78.84C59.69 78.04 58.25 77.23 56.81 76.39C50.77 72.9 45.09 69.32 39.89 65.77C31.65 71.31 23.7 77.32 18.65 82.75C18.65 82.75 12.77 88.23 10.92 93.48C10.92 93.48 10.58 94.72 12.09 94.91L12.09 94.91ZM111.01 43.4C111.01 43.4 116.8 37.49 117.11 34.21C117.13 33.94 117.06 33.68 116.92 33.46C116.77 33.24 116.54 33.08 116.28 33.01C114.7 32.57 110.17 32.16 99.01 35.66C98.67 37.81 96.87 39.45 94.7 39.45C93.52 39.45 92.45 38.97 91.67 38.19C86.32 40.19 79.89 42.87 72.15 46.47C72.15 46.47 70.21 47.5 67.04 49.26C68.41 50.03 69.78 50.81 71.16 51.61C77.28 55.16 83.04 58.79 88.31 62.39C95.12 57.56 103.27 51.12 111.01 43.4ZM11.23 34.58C11.23 34.58 11.96 38.55 20.41 46.67C21.14 46.11 22.04 45.78 23.02 45.78C25.43 45.78 27.38 47.8 27.38 50.3C27.38 51.05 27.21 51.75 26.89 52.38C31.29 55.95 46.02 67.59 60.89 75.61C60.89 75.61 80.66 87.75 105.37 94.37C105.37 94.37 113.39 96.42 116.38 95.04C116.62 94.93 116.82 94.74 116.93 94.5C117.05 94.26 117.07 93.99 117 93.73C116.34 91.22 111.94 82.37 83.23 62.28C83.23 62.28 45.95 38.93 25.04 34.16C25.04 34.16 17.35 31.81 11.88 32.84C11.88 32.84 10.64 33.18 11.23 34.57L11.23 34.58ZM56.3 63.85C56.3 59.69 59.67 56.32 63.83 56.32C67.98 56.32 71.35 59.69 71.35 63.85C71.35 68.01 67.98 71.38 63.83 71.38C59.67 71.38 56.3 68.01 56.3 63.85Z" />
</svg>