<svg version="1.2" baseProfile="tiny-ps" xmlns="http://www.w3.org/2000/svg" viewBox="0 0 128 128" width="128" height="128">
	<path fill="#1589d4" d="M96.78 29.14C100.43 38.4 98.09 45.25 92.63 50.32C103.84 49.84 112.19 54.2 114.88 68.55C118.23 86.36 106.62 94.7 88.44 101.03L93.64 119.26L82.65 122.4L77.53 104.41C74.68 105.22 71.75 106.03 68.72 106.84L73.87 124.9L62.89 128.03L57.68 109.77C55.11 110.49 52.48 111.19 49.81 111.95L35.51 116.03L33.95 102.28C33.95 102.28 42.11 100.08 41.93 100C45.05 99.11 45.23 96.64 45.03 95.18L36.81 66.36L37.97 66.03C37.5 66.1 37.09 66.2 36.79 66.29L30.92 45.72C29.86 43.6 27.67 41.43 23.22 42.7C23.31 42.51 15.24 44.98 15.24 44.98L11.89 33.25L27.05 28.92L27.07 28.98C29.35 28.34 31.67 27.62 34.04 26.89L28.89 8.84L39.88 5.71L44.92 23.41C47.85 22.51 50.78 21.61 53.67 20.79L48.65 3.2L59.64 0.06L64.79 18.12C79.33 15.32 91.82 16.48 96.78 29.14ZM58.29 69.27L65.18 93.47C72.63 91.34 96.45 86.22 92.54 72.58C88.49 58.34 65.74 67.15 58.29 69.27ZM48.87 36.25L55.13 58.19C61.33 56.42 81.24 52.32 77.69 39.9C74 26.94 55.07 34.48 48.87 36.25Z" />
</svg>