<svg version="1.2" baseProfile="tiny-ps" xmlns="http://www.w3.org/2000/svg" viewBox="0 0 128 128" width="128" height="128">
	<path fill="#1589d4" d="M25.37 40.42L64.21 1.58L103.06 40.43L88.77 54.71L64.21 30.15L39.66 54.7L25.37 40.42ZM1 64.79L15.29 50.5L29.57 64.79L15.29 79.08L1 64.79ZM64.21 99.43L88.77 74.87L103.06 89.14L64.21 128L25.37 89.16L25.35 89.14L39.66 74.88L64.21 99.43ZM98.85 64.79L113.13 50.5L127.42 64.79L113.13 79.08L98.85 64.79ZM78.71 64.78L78.71 64.79L64.21 79.29L49.73 64.82L49.7 64.79L49.73 64.77L52.26 62.23L53.5 61L64.21 50.29L78.7 64.78L78.7 64.78L78.71 64.78Z" />
</svg>