<svg viewBox="0 0 128 128" xmlns="http://www.w3.org/2000/svg">
<path d="M112.451 51.4592C114.465 38.0105 104.219 30.7793 90.2181 25.9542L94.7608 7.73172L83.6734 4.97268L79.2461 22.7139C76.3331 21.9825 73.343 21.3023 70.3594 20.6222L74.8188 2.76545L63.7313 0L59.1885 18.216C56.776 17.6642 54.4019 17.1253 52.1049 16.5478L52.1177 16.49L36.8211 12.6723L33.8696 24.5169C33.8696 24.5169 42.1018 26.4033 41.9285 26.5188C46.42 27.6417 47.2284 30.6125 47.0937 32.9737L41.9221 53.7306C42.2301 53.8076 42.6279 53.9231 43.0771 54.0963L41.9029 53.8076L34.6524 82.8866C34.1006 84.2468 32.7082 86.2936 29.5642 85.5173C29.6797 85.6777 21.5052 83.5089 21.5052 83.5089L16 96.2005L30.4368 99.8001C33.1189 100.474 35.7496 101.18 38.3354 101.84L33.7477 120.268L44.8287 123.027L49.3715 104.805C52.4 105.62 55.3387 106.377 58.2133 107.095L53.6833 125.241L64.7708 128L69.3585 109.611C88.2739 113.191 102.493 111.747 108.479 94.6413C113.304 80.8718 108.242 72.922 98.2899 67.744C105.54 66.0757 110.994 61.3083 112.451 51.4592V51.4592ZM87.1061 86.993C83.6862 100.769 60.4911 93.3196 52.9711 91.4524L59.0666 67.0381C66.5866 68.9181 90.6929 72.6332 87.1061 86.993ZM90.5389 51.2603C87.4141 63.7915 68.1137 57.42 61.8577 55.8608L67.3758 33.7244C73.6318 35.2836 93.7984 38.1902 90.5389 51.2603Z" fill="#1589D4"/>
</svg>
