<svg version="1.2" baseProfile="tiny-ps" xmlns="http://www.w3.org/2000/svg" viewBox="0 0 128 128" width="128" height="128">
	<path fill="#1589d4" d="M83.6 12.8L37.6 12.8L33.8 34.1L75.3 34.2C95.8 34.2 101.8 41.6 101.6 53.9C101.5 60.2 98.8 70.9 97.6 74.4C94.4 83.6 88 94.1 63.7 94.1L23.3 94.1L19.5 115.4L65.39 115.4C81.6 115.4 88.49 113.5 95.8 110.1C112 102.6 121.59 86.7 125.39 65.8C131.2 34.9 124.01 12.8 83.6 12.8ZM17.7 53.4C5.6 53.4 3.9 61.3 2.8 66C1.3 72.2 0.8 74.7 0.8 74.7L47.9 74.7C60 74.7 61.7 66.8 62.8 62.1C64.3 55.9 64.8 53.4 64.8 53.4L17.7 53.4L17.7 53.4Z" />
</svg>