<svg viewBox="0 0 128 128" xmlns="http://www.w3.org/2000/svg">
<path d="M1.22363 127.181V97.3466H18.6674V29.353H1.30555V0.727062H3.82971C27.31 0.727062 50.6265 0.808982 74.1119 0.645142C79.3292 0.645142 83.8911 2.03266 88.4581 3.82466C97.6741 7.33186 105.743 12.7949 112.184 20.4595C117.845 27.2414 121.837 35.255 123.843 43.8579C127.268 58.8595 127.35 74.025 123.023 88.8627C117.32 108.186 105.088 121.477 84.7922 125.957C81.211 126.803 77.5458 127.241 73.8661 127.263H4.08059C3.17435 127.181 2.27835 127.181 1.21851 127.181H1.22363ZM54.2156 97.2646C58.2092 97.2646 62.0441 97.5104 65.8738 97.1827C70.8505 96.6912 75.3305 95.145 78.6738 90.8237C81.5308 87.1526 84.0549 83.4867 85.2786 79.1654C87.9717 69.7088 86.9119 60.0883 85.0329 50.5446C83.973 44.841 81.285 39.6237 77.6959 35.3024C75.5762 32.855 72.6425 30.08 69.7087 29.5936C64.814 28.6976 59.5199 29.3478 54.2156 29.3478V97.2646Z" fill="#1589D4"/>
</svg>
