<svg version="1.2" baseProfile="tiny-ps" xmlns="http://www.w3.org/2000/svg" viewBox="0 0 128 128" width="128" height="128">
	<title>DOT-svg</title>
	<style>
		tspan { white-space:pre }
		.shp0 { fill: #1589d4 } 
	</style>
	<path class="shp0" d="M64.54 3.05C52.21 3.09 40.4 7.98 31.68 16.65C22.96 25.31 18.05 37.05 18 49.3C18 54.41 18.83 59.49 20.45 64.33C21.04 65.92 22.21 67.22 23.73 67.98C25.25 68.74 27 68.88 28.63 68.4C30.21 67.8 31.5 66.63 32.24 65.12C32.97 63.61 33.1 61.87 32.6 60.27C31.22 56.5 30.6 52.5 30.79 48.49C30.98 42.02 33.06 35.75 36.78 30.43C40.5 25.12 45.69 20.99 51.72 18.56C57.76 16.12 64.38 15.49 70.77 16.72C77.16 17.96 83.05 21.02 87.73 25.52C92.4 30.03 95.66 35.79 97.1 42.1C98.54 48.41 98.1 55 95.84 61.07C93.58 67.14 89.59 72.42 84.36 76.28C79.13 80.14 72.88 82.4 66.38 82.79C66.38 82.79 59.87 83.2 56.6 83.6C55.4 83.77 54.21 84 53.04 84.3C52.95 84.36 52.85 84.39 52.75 84.38C52.64 84.38 52.54 84.33 52.47 84.26C52.39 84.18 52.35 84.09 52.34 83.98C52.33 83.88 52.36 83.77 52.43 83.69L53.45 78.2L59.58 50.61C59.93 48.97 59.61 47.25 58.69 45.84C57.77 44.43 56.33 43.44 54.67 43.09C53.02 42.74 51.3 43.06 49.88 43.97C48.46 44.89 47.46 46.32 47.11 47.97C47.11 47.97 32.51 115.35 32.51 115.96C32.31 116.77 32.28 117.61 32.42 118.44C32.56 119.27 32.86 120.06 33.32 120.76C33.78 121.46 34.37 122.06 35.07 122.53C35.77 123 36.56 123.32 37.39 123.47C38.21 123.67 39.06 123.69 39.89 123.55C40.72 123.41 41.51 123.1 42.22 122.65C42.93 122.19 43.54 121.6 44.01 120.9C44.47 120.2 44.8 119.42 44.95 118.6C45.16 117.78 46.99 108.85 46.99 108.85C47.67 105.56 49.35 102.55 51.8 100.24C54.25 97.92 57.35 96.41 60.69 95.91C62.09 95.7 68.02 95.3 68.02 95.3C79.86 94.21 90.84 88.65 98.69 79.77C106.54 70.89 110.66 59.35 110.22 47.54C109.77 35.72 104.79 24.53 96.3 16.25C87.8 7.98 76.44 3.25 64.54 3.05ZM88.7 109.57C87.7 109.37 86.66 109.37 85.65 109.56C84.64 109.76 83.68 110.15 82.83 110.72C81.97 111.29 81.24 112.01 80.67 112.86C80.1 113.71 79.7 114.67 79.5 115.67C79.29 116.67 79.28 117.7 79.47 118.71C79.66 119.71 80.06 120.67 80.63 121.52C81.2 122.38 81.94 123.11 82.8 123.67C83.66 124.23 84.62 124.62 85.64 124.81C86.64 125.03 87.69 125.06 88.7 124.87C89.72 124.68 90.68 124.29 91.54 123.72C92.4 123.15 93.13 122.41 93.69 121.55C94.25 120.69 94.63 119.72 94.81 118.71C95.15 116.7 94.71 114.64 93.58 112.94C92.44 111.24 90.7 110.04 88.7 109.57L88.7 109.57Z" />
</svg>