<svg version="1.2" baseProfile="tiny-ps" xmlns="http://www.w3.org/2000/svg" viewBox="0 0 128 128" width="128" height="128">
	<title>ETH-svg</title>
	<style>
		tspan { white-space:pre }
		.shp0 { fill: #1589d4 } 
	</style>
	<path class="shp0" d="M64.19 0.69L64.19 0.76C64.25 1.07 64.25 1.45 64.25 1.83L64.25 47.29C64.19 47.54 64 47.61 63.81 47.73C62.48 48.36 61.23 48.93 59.9 49.49C58.07 50.31 56.18 51.2 54.35 52.02L47.73 55.05C45.91 55.86 44.07 56.68 42.31 57.5C40.17 58.52 37.95 59.46 35.81 60.47C33.99 61.29 32.16 62.17 30.26 62.99C28.75 63.68 27.24 64.32 25.79 65.01C25.67 65.08 25.54 65.12 25.41 65.14C25.35 65.14 25.35 65.14 25.28 65.07L26.99 62.23C30.26 56.81 33.48 51.45 36.76 46.03C40.23 40.23 43.76 34.43 47.23 28.63C50.44 23.27 53.72 17.91 56.94 12.55C59.27 8.64 61.67 4.73 64 0.82C64.06 0.69 64.13 0.63 64.13 0.51L64.19 0.51C64.13 0.57 64.19 0.63 64.19 0.69ZM102.91 65.08L102.97 65.14L93.7 70.62L64.57 87.83C64.44 87.89 64.31 87.96 64.25 88.02C64.06 88.02 64.06 87.83 64.06 87.77L64.06 48.25C64.06 48.05 64.06 47.8 64.13 47.61C64.19 47.35 64.38 47.42 64.57 47.48C65.39 47.86 66.27 48.24 67.09 48.62C69.55 49.76 72.01 50.89 74.47 51.96C76.62 52.91 78.69 53.92 80.83 54.86C82.98 55.81 85.13 56.82 87.27 57.76C89.09 58.58 90.99 59.46 92.82 60.28C94.64 61.1 96.54 61.99 98.37 62.81C99.81 63.44 101.26 64.13 102.72 64.76C102.72 64.95 102.78 65.01 102.91 65.08ZM64.19 127.18C64.19 127.24 64.13 127.31 64.13 127.37L64.06 127.37C64.06 127.24 63.94 127.18 63.87 127.05C59.97 121.57 56.05 116.02 52.15 110.54L40.17 93.64C36.32 88.21 32.41 82.73 28.56 77.31C27.56 75.85 26.55 74.47 25.54 73.02C25.47 72.89 25.41 72.83 25.28 72.64C25.47 72.64 25.6 72.77 25.66 72.83C31.15 76.04 36.57 79.26 42.06 82.47C48.36 86.2 54.6 89.92 60.91 93.63L64.13 95.53C64.25 95.65 64.25 95.78 64.25 95.91L64.25 126.3C64.25 126.61 64.25 126.93 64.19 127.18ZM25.35 65.08L25.61 65.08L25.61 65.33L25.09 65.33L25.09 65.08L25.35 65.08ZM64.38 1.08C64.13 1.08 64.13 0.82 64.13 0.56L64.38 0.56L64.38 1.08ZM25.22 65.2L25.22 65.14C27.24 64.25 29.19 63.31 31.21 62.42C33.8 61.23 36.38 60.09 38.97 58.89C40.92 58.01 42.94 57.06 44.89 56.18C47.8 54.86 50.63 53.6 53.53 52.27C55.49 51.39 57.44 50.51 59.46 49.56C60.85 48.93 62.3 48.3 63.68 47.67C63.81 47.61 64 47.54 64.06 47.42C64.13 47.42 64.13 47.48 64.06 47.54L64.06 87.58C64.06 87.77 64 87.96 64.13 88.08C64 88.27 63.87 88.08 63.81 88.02C63.23 87.71 62.66 87.37 62.11 87.01C49.94 79.83 37.71 72.58 25.54 65.39C25.44 65.31 25.33 65.25 25.22 65.2ZM102.78 72.64L102.84 72.64C102.84 72.77 102.72 72.89 102.65 73.02C91.05 89.35 79.45 105.74 67.85 122.07C66.65 123.78 65.39 125.48 64.19 127.18C64.13 127.12 64.13 127.05 64.13 126.99L64.13 95.47C66.78 93.89 69.36 92.38 72.01 90.8C82.22 84.75 92.44 78.76 102.59 72.7C102.65 72.77 102.72 72.7 102.78 72.64ZM64.13 47.54L64.13 1.26C64.13 1.07 64.06 0.95 64.19 0.75C76.99 22.01 89.79 43.19 102.53 64.45C102.65 64.63 102.84 64.88 102.91 65.14C102.02 64.82 101.2 64.38 100.38 64C99.37 63.56 98.3 63.05 97.29 62.62C96.66 62.3 95.97 62.04 95.34 61.73C94.26 61.23 93.19 60.78 92.12 60.28C91.48 60.01 90.85 59.72 90.23 59.4L86.07 57.5C85.38 57.19 84.68 56.87 83.93 56.56L80.9 55.23C80.27 54.98 79.64 54.67 79.01 54.35L74.84 52.46C74.15 52.15 73.46 51.83 72.7 51.52L69.67 50.19C68.98 49.87 68.35 49.56 67.66 49.24C66.46 48.68 65.26 48.11 64 47.61C64.19 47.54 64.13 47.54 64.13 47.54Z" />
</svg>