<svg viewBox="0 0 128 128" xmlns="http://www.w3.org/2000/svg">
<path fill-rule="evenodd" clip-rule="evenodd" d="M128 64C128 99.3464 99.3464 128 64 128C28.6538 128 0 99.3464 0 64C0 28.6538 28.6538 0 64 0C99.3464 0 128 28.6538 128 64ZM49.3999 110.4C50.8002 110.85 52 110 52 108.5V104.7C52 103.7 51.2499 102.55 50.3002 102.2C34.95 96.5999 24 81.9 24 64.6498C24 47.45 34.95 32.7 50.3002 27.05C51.2499 26.7 52 25.55 52 24.55V20.8C52 19.3 50.8501 18.45 49.3999 18.9C30 25.1 16 43.2499 16 64.6498C16 86.1001 30 104.2 49.3999 110.4ZM68 94.65C68 95.75 67.1002 96.6498 66.0002 96.6498H62.0002C60.8999 96.6498 60 95.75 60 94.65V88.3499C51.25 87.1501 46.9999 82.3002 45.8501 75.5998C45.6499 74.4499 46.5502 73.4498 47.7001 73.4498H52.2501C53.2002 73.4498 54.0002 74.15 54.1999 75.0498C55.0503 78.9999 57.35 82.0501 64.3499 82.0501C69.5002 82.0501 73.2002 79.1501 73.2002 74.8501C73.2002 70.5502 71.0503 68.8998 63.4501 67.6501C52.2501 66.15 46.95 62.7499 46.95 53.9998C46.95 47.2499 52.0999 41.95 60 40.85V34.65C60 33.55 60.8999 32.65 62.0002 32.65H66.0002C67.1002 32.65 68 33.55 68 34.65V41C74.45 42.15 78.5502 45.8001 79.9002 51.9002C80.1502 53.05 79.2499 54.1001 78.0502 54.1001H73.8501C72.9502 54.1001 72.2001 53.5002 71.9501 52.6498C70.8002 48.8 68.0499 47.1002 63.25 47.1002C57.9499 47.1002 55.2 49.6499 55.2 53.2502C55.2 57.05 56.7501 58.95 64.8999 60.0999C75.9002 61.6 81.6 64.7501 81.6 74.1001C81.6 81.1998 76.3 86.95 68.0499 88.25V94.65H68ZM76 108.5C76 110 77.1499 110.85 78.6001 110.4C97.9998 104.2 112 86.1001 112 64.6498C112 43.2499 97.9998 25.1 78.6001 19C77.1998 18.55 76 19.4 76 20.9V24.65C76 25.65 76.7501 26.8 77.6998 27.15C93.05 32.75 104 47.45 104 64.7002C104 81.8999 93.0001 96.6498 77.6998 102.25C76.6498 102.6 76 103.65 76 104.75V108.5Z" fill="#1589D4"/>
</svg>
