<svg viewBox="0 0 128 128" xmlns="http://www.w3.org/2000/svg">
<path d="M76.9764 46.5751V64.1679C76.6824 64.1679 75.472 64.2398 73.3453 64.3837C71.2185 64.5275 68.2504 64.5995 64.441 64.5995C61.0694 64.5995 58.2108 64.5275 55.8651 64.3837C53.5194 64.2398 51.9807 64.1679 51.2488 64.1679V46.5751C38.3443 47.1631 27.5698 48.483 18.9251 50.5347C10.2804 52.5864 5.95494 54.9321 5.94869 57.5718C5.94243 60.2115 10.2304 62.5572 18.8125 64.6089C27.3946 66.6606 38.1348 67.9053 51.033 68.3432C51.915 68.3432 53.4537 68.4151 55.6493 68.559C57.8449 68.7029 60.6316 68.7748 64.0094 68.7748C68.2629 68.7748 71.4155 68.7029 73.4672 68.559C75.5189 68.4151 76.6918 68.3432 76.9858 68.3432C89.8903 67.9053 100.63 66.6606 109.206 64.6089C117.782 62.5572 122.07 60.2115 122.07 57.5718C122.07 54.9321 117.782 52.5864 109.206 50.5347C100.63 48.483 89.8903 47.1631 76.9858 46.5751H76.9764ZM76.9764 72.9595V123.317H51.0236V72.9595C36.3614 72.2277 24.192 70.5794 14.5152 68.0148C4.83839 65.4502 0 62.407 0 58.8854C0 55.3637 4.83839 52.3205 14.5152 49.7559C24.192 47.1913 36.3614 45.543 51.0236 44.8112V28.973H15.1814V5H112.819V28.973H76.9764V44.8112C91.6386 45.543 103.808 47.1913 113.485 49.7559C123.162 52.3205 128 55.3637 128 58.8854C128 62.407 123.162 65.4502 113.485 68.0148C103.808 70.5794 91.6386 72.2277 76.9764 72.9595Z" fill="#1589D4"/>
</svg>
