<svg version="1.2" baseProfile="tiny-ps" xmlns="http://www.w3.org/2000/svg" viewBox="0 0 126 128" width="126" height="128">
	<path fill="#1589d4" d="M102.61 27.51C121.63 48.16 121.63 79.97 102.61 100.61L99.15 97.15C116.24 78.44 116.24 49.77 99.15 31.05L102.61 27.59L102.61 27.51ZM26.4 24.44C47.02 5.39 78.78 5.39 99.4 24.44L95.95 27.89C77.26 10.78 48.62 10.78 29.93 27.89L26.4 24.44ZM23.25 100.76C4.23 80.12 4.23 48.31 23.25 27.66L26.71 31.12C9.64 49.83 9.64 78.48 26.71 97.19L23.25 100.76ZM99.45 103.84C78.83 122.88 47.06 122.88 26.44 103.84L29.9 100.38C48.59 117.49 77.23 117.49 95.91 100.38L99.45 103.84ZM79.5 62.86C85.32 64.25 88.96 67.71 88.23 75.46C87.33 85.09 80.17 87.63 69.9 88.25L69.9 98.31L63.81 98.31L63.81 88.33L58.95 88.33L58.95 98.35L52.86 98.35L52.86 88.18L40.59 88.18L41.8 80.91C41.8 80.91 46.3 80.97 46.22 80.91C46.23 80.91 46.23 80.91 46.24 80.91C47.43 80.98 48.45 80.08 48.52 78.89L48.52 51.48C48.28 49.8 46.75 48.62 45.07 48.8C45.14 48.72 40.64 48.8 40.64 48.8L40.64 42.29L52.97 42.29L52.97 32.28L59.01 32.28L59.01 42.09C60.64 42.03 62.27 42.03 63.87 42.03L63.87 32.28L69.96 32.28L69.96 42.23C77.82 42.97 84.04 45.39 84.73 52.61C85.26 57.89 83.04 61.06 79.5 62.86ZM59.14 67.54L59.14 80.96C63.26 80.96 76.21 81.83 76.21 74.26C76.21 66.36 63.26 67.55 59.14 67.54ZM59.15 49.23L59.15 61.42C62.58 61.42 73.39 62.26 73.39 55.34C73.39 48.14 62.58 49.23 59.15 49.23ZM62.91 127.15C28.16 127.14 -0.01 98.93 0 64.14C0.01 29.35 28.18 1.15 62.93 1.15C97.67 1.16 125.83 29.35 125.84 64.14C125.8 98.92 97.65 127.11 62.91 127.15ZM62.91 6.07C30.89 6.09 4.94 32.09 4.96 64.15C4.98 96.21 30.96 122.19 62.98 122.17C94.97 122.15 120.91 96.18 120.92 64.14C120.88 32.08 94.92 6.11 62.91 6.1L62.91 6.07Z" />
</svg>