<svg version="1.2" xmlns="http://www.w3.org/2000/svg" viewBox="0 0 512 512" width="32" height="32">
	<defs>
		<linearGradient id="g1" x1="35.3" y1="62.8" x2="251.3" y2="493.8" gradientUnits="userSpaceOnUse">
			<stop offset="0" stop-color="#58ff82"/>
			<stop offset=".2" stop-color="#00ffed"/>
			<stop offset=".4" stop-color="#00a8ff"/>
			<stop offset=".6" stop-color="#005cfc"/>
			<stop offset=".8" stop-color="#550ba9"/>
			<stop offset="1" stop-color="#9157ff"/>
		</linearGradient>
		<linearGradient id="g2" x1="345.9" y1="-92.5" x2="561.9" y2="338.5" gradientUnits="userSpaceOnUse">
			<stop offset="0" stop-color="#58ff82"/>
			<stop offset=".2" stop-color="#00ffed"/>
			<stop offset=".4" stop-color="#00a8ff"/>
			<stop offset=".6" stop-color="#005cfc"/>
			<stop offset=".8" stop-color="#550ba9"/>
			<stop offset="1" stop-color="#9157ff"/>
		</linearGradient>
		<linearGradient id="g3" x1="33.2" y1="63.9" x2="249.1" y2="494.9" gradientUnits="userSpaceOnUse">
			<stop offset="0" stop-color="#58ff82"/>
			<stop offset=".2" stop-color="#00ffed"/>
			<stop offset=".4" stop-color="#00a8ff"/>
			<stop offset=".6" stop-color="#005cfc"/>
			<stop offset=".8" stop-color="#550ba9"/>
			<stop offset="1" stop-color="#9157ff"/>
		</linearGradient>
		<linearGradient id="g4" x1="321.9" y1="-80.5" x2="537.9" y2="350.5" gradientUnits="userSpaceOnUse">
			<stop offset="0" stop-color="#58ff82"/>
			<stop offset=".2" stop-color="#00ffed"/>
			<stop offset=".4" stop-color="#00a8ff"/>
			<stop offset=".6" stop-color="#005cfc"/>
			<stop offset=".8" stop-color="#550ba9"/>
			<stop offset="1" stop-color="#9157ff"/>
		</linearGradient>
		<linearGradient id="g5" x1="47.4" y1="56.8" x2="263.4" y2="487.8" gradientUnits="userSpaceOnUse">
			<stop offset="0" stop-color="#58ff82"/>
			<stop offset=".2" stop-color="#00ffed"/>
			<stop offset=".4" stop-color="#00a8ff"/>
			<stop offset=".6" stop-color="#005cfc"/>
			<stop offset=".8" stop-color="#550ba9"/>
			<stop offset="1" stop-color="#9157ff"/>
		</linearGradient>
		<linearGradient id="g6" x1="41.6" y1="59.7" x2="257.6" y2="490.7" gradientUnits="userSpaceOnUse">
			<stop offset="0" stop-color="#58ff82"/>
			<stop offset=".2" stop-color="#00ffed"/>
			<stop offset=".4" stop-color="#00a8ff"/>
			<stop offset=".6" stop-color="#005cfc"/>
			<stop offset=".8" stop-color="#550ba9"/>
			<stop offset="1" stop-color="#9157ff"/>
		</linearGradient>
		<linearGradient id="g7" x1="48.9" y1="56" x2="264.9" y2="487" gradientUnits="userSpaceOnUse">
			<stop offset="0" stop-color="#58ff82"/>
			<stop offset=".2" stop-color="#00ffed"/>
			<stop offset=".4" stop-color="#00a8ff"/>
			<stop offset=".6" stop-color="#005cfc"/>
			<stop offset=".8" stop-color="#550ba9"/>
			<stop offset="1" stop-color="#9157ff"/>
		</linearGradient>
		<linearGradient id="g8" x1="121.6" y1="19.7" x2="337.6" y2="450.7" gradientUnits="userSpaceOnUse">
			<stop offset="0" stop-color="#58ff82"/>
			<stop offset=".2" stop-color="#00ffed"/>
			<stop offset=".4" stop-color="#00a8ff"/>
			<stop offset=".6" stop-color="#005cfc"/>
			<stop offset=".8" stop-color="#550ba9"/>
			<stop offset="1" stop-color="#9157ff"/>
		</linearGradient>
		<linearGradient id="g9" x1="56.9" y1="52" x2="272.9" y2="483" gradientUnits="userSpaceOnUse">
			<stop offset="0" stop-color="#58ff82"/>
			<stop offset=".2" stop-color="#00ffed"/>
			<stop offset=".4" stop-color="#00a8ff"/>
			<stop offset=".6" stop-color="#005cfc"/>
			<stop offset=".8" stop-color="#550ba9"/>
			<stop offset="1" stop-color="#9157ff"/>
		</linearGradient>
		<linearGradient id="g10" x1="108.4" y1="26.3" x2="324.4" y2="457.3" gradientUnits="userSpaceOnUse">
			<stop offset="0" stop-color="#58ff82"/>
			<stop offset=".2" stop-color="#00ffed"/>
			<stop offset=".4" stop-color="#00a8ff"/>
			<stop offset=".6" stop-color="#005cfc"/>
			<stop offset=".8" stop-color="#550ba9"/>
			<stop offset="1" stop-color="#9157ff"/>
		</linearGradient>
		<linearGradient id="g11" x1="67.3" y1="46.8" x2="283.3" y2="477.8" gradientUnits="userSpaceOnUse">
			<stop offset="0" stop-color="#58ff82"/>
			<stop offset=".2" stop-color="#00ffed"/>
			<stop offset=".4" stop-color="#00a8ff"/>
			<stop offset=".6" stop-color="#005cfc"/>
			<stop offset=".8" stop-color="#550ba9"/>
			<stop offset="1" stop-color="#9157ff"/>
		</linearGradient>
		<linearGradient id="g12" x1="96.1" y1="32.5" x2="312" y2="463.5" gradientUnits="userSpaceOnUse">
			<stop offset="0" stop-color="#58ff82"/>
			<stop offset=".2" stop-color="#00ffed"/>
			<stop offset=".4" stop-color="#00a8ff"/>
			<stop offset=".6" stop-color="#005cfc"/>
			<stop offset=".8" stop-color="#550ba9"/>
			<stop offset="1" stop-color="#9157ff"/>
		</linearGradient>
		<linearGradient id="g13" x1="89" y1="36" x2="305" y2="467" gradientUnits="userSpaceOnUse">
			<stop offset="0" stop-color="#58ff82"/>
			<stop offset=".2" stop-color="#00ffed"/>
			<stop offset=".4" stop-color="#00a8ff"/>
			<stop offset=".6" stop-color="#005cfc"/>
			<stop offset=".8" stop-color="#550ba9"/>
			<stop offset="1" stop-color="#9157ff"/>
		</linearGradient>
		<linearGradient id="g14" x1="89" y1="36" x2="305" y2="467" gradientUnits="userSpaceOnUse">
			<stop offset="0" stop-color="#58ff82"/>
			<stop offset=".2" stop-color="#00ffed"/>
			<stop offset=".4" stop-color="#00a8ff"/>
			<stop offset=".6" stop-color="#005cfc"/>
			<stop offset=".8" stop-color="#550ba9"/>
			<stop offset="1" stop-color="#9157ff"/>
		</linearGradient>
	</defs>
	<style>
		.s0 { opacity: .1;fill: url(#g1) } 
		.s1 { opacity: .1;fill: url(#g2) } 
		.s2 { opacity: .1;fill: url(#g3) } 
		.s3 { opacity: .1;fill: url(#g4) } 
		.s4 { opacity: .1;fill: url(#g5) } 
		.s5 { opacity: .1;fill: url(#g6) } 
		.s6 { opacity: .2;fill: url(#g7) } 
		.s7 { opacity: .2;fill: url(#g8) } 
		.s8 { opacity: .4;fill: url(#g9) } 
		.s9 { opacity: .4;fill: url(#g10) } 
		.s10 { opacity: .6;fill: url(#g11) } 
		.s11 { opacity: .6;fill: url(#g12) } 
		.s12 { opacity: .8;fill: url(#g13) } 
		.s13 { fill: url(#g14) } 
		.s14 { fill: #ffffff } 
	</style>
	<path id="Layer" class="s0" d="m311.6 502.8q-6.5 1.4-13.1 2.5c-15.1-4.5-29.4-11.2-42.5-19.8-13.1 8.6-27.4 15.3-42.5 19.8q-6.6-1.1-13.1-2.5c19.3-4.2 37.6-12.1 54-23.1 1-0.7 2.2-0.7 3.2 0 16.4 11 34.7 18.9 54 23.1z"/>
	<path id="Layer" class="s1" d="m394.3 38.3q6.7 4.3 13.1 9l95.9 140q2.1 7.6 3.7 15.4z"/>
	<path id="Layer" class="s2" d="m5 202.7q1.6-7.8 3.7-15.4l95.8-139.9q6.5-4.8 13.2-9.1z"/>
	<path id="Layer" class="s3" d="m340.9 12.3q7.1 2.4 14 5.3c5 5.3 9.6 10.9 13.7 16.9l143.2 209q0.2 4.9 0.2 9.8 0 0.3 0 0.6l-148.1-216.2c-6.5-9.4-14.2-18-23-25.4z"/>
	<path id="Layer" class="s4" d="m0 253.3q0-4.9 0.2-9.8l143.2-209c4.1-6 8.7-11.6 13.7-16.9q6.9-2.8 14-5.3c-8.8 7.4-16.5 16-23 25.5l-148.1 216.1q0-0.3 0-0.6z"/>
	<path id="Layer" class="s5" d="m359.2 487.2q-4.6 2-9.4 3.9l-31.9-6.4c-22.9-4.6-44.2-15-61.9-30.2-17.7 15.2-39 25.6-61.9 30.2l-31.9 6.4q-4.8-1.9-9.4-3.9l40.2-8.1c22.7-4.6 43.8-15.1 61.1-30.6 1.1-0.9 2.7-0.9 3.8 0 17.3 15.5 38.4 26 61.1 30.6z"/>
	<path id="Layer" class="s6" d="m393.5 468.8q-3.5 2.3-7.1 4.4l-63.6-12.8c-26.6-5.3-50.4-20.3-66.8-41.9-16.4 21.6-40.2 36.6-66.8 41.9l-63.6 12.8q-3.6-2.1-7.1-4.4l69.5-14c26.6-5.3 50.1-20.7 65.7-42.8q0.2-0.4 0.7-0.7c1.2-0.9 3-0.6 3.9 0.7 15.6 22.1 39.1 37.5 65.7 42.8z"/>
	<path id="Layer" class="s7" d="m3.1 293.2q-0.6-4.2-1.2-8.4l162-236.3c7.8-11.4 17.7-21.2 29.1-29 50.9-34.8 120.3-21.8 155.1 29l162 236.3q-0.6 4.2-1.2 8.4l-165.5-241.5c-7.4-10.8-16.8-20.1-27.6-27.5-48.3-33-114.2-20.6-147.2 27.5z"/>
	<path id="Layer" class="s8" d="m420.7 448.9q-2.9 2.5-5.9 4.8l-87-17.6c-22.5-4.5-42.3-17.7-55-36.7l-16.8-25.1-16.8 25.1c-12.7 19-32.5 32.2-55 36.7l-87 17.6q-3-2.3-5.9-4.8 2.2-0.3 4.3-0.7l87.5-17.7c21-4.2 39.5-16.5 51.3-34.3l19.2-28.7q0.3-0.4 0.8-0.7c1.3-0.9 3.1-0.6 4 0.7l19.2 28.7c11.8 17.8 30.3 30.1 51.3 34.3l87.5 17.7q2.1 0.4 4.3 0.7z"/>
	<path id="Layer" class="s9" d="m10.6 326.3q-1.1-3.6-2-7.3l175.8-256.5c6-8.9 13.7-16.5 22.6-22.6 39.6-27 93.6-16.9 120.6 22.6l175.8 256.5q-0.9 3.7-2 7.3c-0.7-1-1.3-2.1-2-3.1l-176.5-257.5c-5.7-8.3-12.8-15.4-21.1-21.1-37-25.2-87.4-15.8-112.7 21.1l-176.5 257.5c-0.7 1-1.3 2.1-2 3.1z"/>
	<path id="Layer" class="s10" d="m447.3 423.1q-3.2 3.6-6.6 7.1c-6.8 0.9-13.8 0.7-20.5-0.7l-87.5-17.6c-16.1-3.2-30.2-12.7-39.3-26.3l-37.4-55.9-37.4 55.9c-9.1 13.6-23.2 23.1-39.3 26.3l-87.5 17.6q-6.1 1.3-12.4 1.3-4 0-8.1-0.6-3.4-3.5-6.6-7.1c4.8 1.3 9.8 1.9 14.7 2q5.7-0.1 11.3-1.2l87.5-17.6c14.6-3 27.4-11.5 35.6-23.9l39.8-59.4q0.3-0.3 0.6-0.6c1.3-1 3.2-0.7 4.2 0.6l39.8 59.4c8.2 12.4 21 21 35.6 23.9l87.5 17.6q5.6 1.1 11.3 1.2c4.9-0.1 9.9-0.7 14.7-2z"/>
	<path id="Layer" class="s11" d="m23.8 361q-2-4.4-3.9-8.8c1.8-6.5 4.7-12.7 8.5-18.2l176.4-257.5c4.4-6.4 9.9-11.8 16.2-16.2 28.3-19.3 66.8-12 86.2 16.2l176.4 257.5c3.8 5.5 6.7 11.7 8.5 18.2q-1.9 4.4-3.9 8.9c-1.2-8.6-4.4-16.8-9.3-23.9l-176.5-257.5c-3.9-5.7-8.9-10.7-14.6-14.6-25.7-17.6-60.7-11-78.2 14.6l-176.5 257.5c-4.9 7.1-8.1 15.3-9.3 23.8z"/>
	<path id="Layer" fill-rule="evenodd" class="s12" d="m79.4 406c-7.4 0-14.7-2.3-20.8-6.5-17-11.5-21.3-34.6-9.8-51.6l176.5-257.5c2.6-3.8 5.9-7 9.7-9.6 17-11.6 40.1-7.3 51.7 9.6l176.4 257.5c4.3 6.2 6.5 13.5 6.5 20.9 0.1 20.5-16.5 37.2-37 37.2q-3.8 0-7.5-0.7l-87.5-17.7c-9.6-1.9-18.1-7.6-23.5-15.8l-58.1-86.6-58.1 86.6c-5.4 8.2-13.9 13.9-23.5 15.8l-87.5 17.7q-3.7 0.7-7.5 0.7zm0-5.7q3.2 0 6.4-0.6l87.5-17.7c8.1-1.6 15.3-6.4 19.9-13.3l60.4-90.2q0.3-0.4 0.6-0.6c1.3-1 3.2-0.8 4.2 0.6l60.4 90.2c4.6 6.9 11.8 11.7 19.9 13.3l87.5 17.7q3.2 0.6 6.4 0.6c6.3 0 12.4-1.9 17.6-5.5 14.3-9.8 18-29.3 8.2-43.6l-176.4-257.5c-2.2-3.2-5-6-8.2-8.2-14.4-9.8-34-6.1-43.8 8.2l-176.4 257.5c-6.6 9.6-7.3 22-1.9 32.3 5.4 10.3 16.1 16.8 27.7 16.8z"/>
	<path id="Layer" fill-rule="evenodd" class="s13" d="m82 381q-1.3 0.2-2.6 0.2c-2.4 0-4.8-0.7-6.8-2.1-5.7-3.8-7.1-11.5-3.3-17.2l176.5-257.5c0.9-1.2 1.9-2.3 3.2-3.2 5.7-3.8 13.3-2.4 17.2 3.2l176.5 257.5c1.9 2.8 2.5 6.2 1.9 9.4-1.4 6.7-7.9 11-14.6 9.7l-87.5-17.7c-3.2-0.6-6-2.5-7.8-5.2l-73.2-109.2q-0.7-1.1-1.8-1.9c-3.1-2-7.2-1.2-9.2 1.9l-73.2 109.2c-1.8 2.7-4.6 4.6-7.8 5.2zm-1.2-5.6l87.5-17.7c1.7-0.3 3.3-1.3 4.2-2.8l73.2-109.2c0.9-1.3 2.1-2.5 3.4-3.4 5.7-3.8 13.4-2.2 17.2 3.4l73.1 109.2c1 1.5 2.5 2.5 4.2 2.8l87.5 17.7c1.8 0.4 3.6 0 5.1-1 3-2.1 3.8-6.2 1.7-9.2l-176.4-257.5q-0.7-1-1.8-1.7c-3-2.1-7.1-1.3-9.2 1.7l-176.5 257.5c-1.5 2.2-1.5 5.1 0 7.4 1.5 2.3 4.2 3.4 6.8 2.8z"/>
	<path id="Layer" class="s14" d="m256 208.1l-92.4 138-71.3 14.3 163.7-238.8 163.7 238.8-71.3-14.3z"/>
</svg>